<?xml version="1.0" standalone="no"?>
<!DOCTYPE svg PUBLIC "-//W3C//DTD SVG 20010904//EN"
 "http://www.w3.org/TR/2001/REC-SVG-20010904/DTD/svg10.dtd">
<svg version="1.0" xmlns="http://www.w3.org/2000/svg"
 width="430.000000pt" height="430.000000pt" viewBox="0 0 430.000000 430.000000"
 preserveAspectRatio="xMidYMid meet">

<g transform="translate(0.000000,430.000000) scale(0.100000,-0.100000)"
fill="#000000" stroke="none">
<path d="M1975 3455 c-180 -28 -377 -103 -566 -216 l-36 -21 -89 35 c-159 64
-326 94 -454 82 -367 -36 -658 -276 -751 -620 -30 -110 -30 -278 0 -389 47
-178 173 -363 310 -458 l24 -17 -54 -68 c-30 -37 -112 -140 -182 -227 -72 -90
-124 -163 -119 -168 4 -4 67 -30 140 -56 72 -26 134 -51 138 -55 3 -3 -10 -47
-30 -97 -20 -49 -36 -97 -36 -105 0 -18 -2 -18 255 -55 116 -17 227 -33 247
-36 35 -6 37 -5 43 22 4 16 8 33 9 39 1 5 29 -31 61 -80 74 -113 207 -251 298
-311 75 -50 176 -98 185 -89 3 3 0 55 -7 116 -7 61 -11 113 -8 115 3 3 27 -6
54 -19 201 -102 514 -167 799 -167 266 0 554 59 738 152 32 16 60 27 63 25 2
-3 -1 -50 -8 -106 -7 -55 -10 -103 -6 -107 3 -4 32 8 64 26 182 102 338 263
428 439 30 60 38 57 50 -16 4 -24 8 -43 11 -43 9 0 528 131 531 134 3 2 -18
49 -46 104 -37 75 -47 102 -38 109 7 5 69 36 140 69 70 32 127 63 127 68 0 5
-82 92 -182 194 l-182 185 44 36 c148 120 251 272 296 436 22 81 29 265 15
351 -76 434 -523 737 -971 660 -111 -19 -170 -37 -260 -78 l-66 -29 -91 54
c-269 158 -603 227 -888 182z m378 -90 c224 -34 467 -144 652 -296 413 -339
616 -865 551 -1429 -39 -333 -113 -545 -253 -719 -70 -89 -196 -198 -201 -176
-2 8 10 124 27 257 51 401 61 530 68 820 7 297 5 308 -42 308 -36 0 -43 -19
-48 -123 -3 -55 -7 -101 -10 -103 -2 -3 -15 -1 -28 5 -111 44 -146 59 -234
103 -136 69 -282 170 -392 272 -50 47 -94 86 -97 86 -3 0 -6 -48 -6 -107 0
-109 18 -249 46 -357 8 -32 13 -60 11 -63 -3 -2 -32 7 -66 21 -250 101 -463
355 -566 676 -9 30 -21 58 -24 63 -4 4 -27 -37 -52 -90 -73 -164 -207 -350
-368 -516 l-76 -78 -8 50 c-7 43 -12 52 -34 57 -50 13 -58 -4 -55 -107 5 -195
56 -731 105 -1111 7 -54 10 -98 6 -98 -11 0 -99 68 -147 114 -63 59 -154 182
-206 278 -197 363 -242 840 -115 1223 152 460 540 845 1000 995 182 60 367 75
562 45z m1255 -124 c40 -10 75 -21 78 -24 3 -2 -21 -31 -53 -63 -64 -66 -113
-149 -138 -238 -23 -80 -17 -228 13 -311 82 -224 292 -365 543 -365 38 0 69
-3 69 -6 0 -14 -54 -111 -85 -154 -41 -56 -124 -135 -188 -179 -42 -28 -167
-91 -182 -91 -3 0 -5 23 -5 50 0 145 -41 382 -96 550 -84 257 -268 531 -469
700 -54 45 -72 66 -63 72 29 18 128 51 208 69 105 23 260 19 368 -10z m-2428
-20 c127 -43 132 -46 100 -72 -246 -203 -369 -354 -495 -608 -31 -62 -58 -112
-60 -110 -2 2 7 49 20 104 35 150 48 270 42 386 -6 133 -19 174 -70 223 -40
38 -41 38 -106 34 l-66 -5 62 29 c97 46 169 58 333 55 133 -3 153 -6 240 -36z
m2751 -153 c141 -113 249 -349 249 -543 l0 -66 -37 -15 c-60 -26 -194 -16
-265 19 -72 35 -140 104 -175 176 -23 47 -27 70 -28 141 0 74 4 93 29 144 30
62 85 124 139 156 41 26 41 26 88 -12z m-3357 -78 c14 -18 28 -50 32 -78 7
-44 -11 -245 -23 -265 -6 -10 -70 -1 -138 20 -55 17 -195 90 -195 102 0 14 61
102 102 148 94 101 175 128 222 73z m-345 -390 c67 -40 247 -110 282 -110 11
0 22 -6 25 -14 5 -13 -56 -186 -95 -265 -11 -25 -21 -50 -21 -56 0 -11 136
-75 159 -75 6 0 25 31 43 70 18 38 36 70 39 70 3 0 0 -33 -7 -72 -8 -40 -17
-130 -20 -200 -4 -71 -8 -128 -10 -128 -13 0 -105 46 -142 72 -171 116 -273
259 -322 452 -26 102 -28 296 -3 296 2 0 35 -18 72 -40z m1525 -274 c29 -76
154 -254 235 -335 124 -124 253 -200 408 -241 83 -22 123 -25 123 -11 0 5 -11
52 -25 103 -27 97 -67 310 -60 317 2 2 35 -19 72 -47 162 -119 346 -219 518
-280 l80 -28 -2 -120 c-3 -137 -30 -455 -43 -499 -5 -16 -12 -66 -15 -110 -8
-124 -16 -163 -34 -179 -28 -25 -172 -93 -255 -121 -281 -91 -683 -105 -991
-34 -123 28 -230 66 -336 121 -109 55 -102 42 -114 208 -3 41 -9 95 -15 120
-10 49 -24 186 -44 440 l-14 165 137 140 c131 134 242 270 311 383 17 28 35
52 39 52 5 0 16 -20 25 -44z m-1238 -551 c8 -19 -141 -405 -155 -405 -5 0 -66
21 -159 55 -11 4 97 146 241 318 41 48 63 58 73 32z m3450 -131 c77 -80 140
-149 142 -153 3 -8 -156 -87 -162 -80 -2 2 -43 82 -91 178 -81 163 -86 176
-69 188 10 7 23 13 30 13 6 0 74 -66 150 -146z m-3332 15 c9 -97 41 -240 77
-346 27 -78 29 -96 24 -161 l-7 -73 -31 6 c-18 3 -92 14 -166 25 -74 11 -137
22 -139 25 -6 6 220 595 228 595 4 0 10 -32 14 -71z m3180 -205 c75 -152 134
-279 132 -281 -6 -7 -328 -85 -332 -81 -1 2 -8 42 -14 89 -11 79 -9 96 14 210
22 110 46 272 46 322 0 9 4 17 9 17 5 0 70 -124 145 -276z"/>
<path d="M1492 1660 c-35 -33 -54 -80 -60 -147 -16 -200 135 -300 209 -138 40
87 17 247 -42 289 -32 22 -81 20 -107 -4z"/>
<path d="M2748 1660 c-77 -60 -80 -258 -7 -337 47 -49 113 -32 151 40 30 55
33 194 5 244 -39 73 -98 94 -149 53z"/>
</g>
</svg>
