<?xml version="1.0" standalone="no"?>
<!DOCTYPE svg PUBLIC "-//W3C//DTD SVG 20010904//EN"
 "http://www.w3.org/TR/2001/REC-SVG-20010904/DTD/svg10.dtd">
<svg version="1.0" xmlns="http://www.w3.org/2000/svg"
 width="500.000000pt" height="500.000000pt" viewBox="0 0 500.000000 500.000000"
 preserveAspectRatio="xMidYMid meet">

<g transform="translate(0.000000,500.000000) scale(0.100000,-0.100000)"
fill="#000000" stroke="none">
<path d="M2315 3885 c-180 -28 -377 -103 -566 -216 l-36 -21 -89 35 c-114 46
-187 65 -299 78 -243 27 -499 -59 -678 -230 -328 -311 -338 -813 -22 -1136 44
-46 91 -89 104 -98 l24 -16 -54 -68 c-30 -37 -111 -139 -182 -226 -70 -87
-125 -162 -122 -166 2 -4 64 -30 137 -56 73 -27 137 -52 142 -56 5 -4 -8 -48
-28 -98 -20 -50 -36 -97 -36 -105 0 -18 6 -19 255 -55 110 -17 219 -33 242
-37 40 -6 42 -5 48 22 4 16 8 33 9 39 1 5 29 -31 61 -80 74 -113 207 -251 298
-311 75 -50 176 -98 185 -89 3 3 0 55 -7 116 -7 61 -11 113 -8 115 3 3 27 -6
54 -19 416 -210 1093 -221 1512 -26 46 22 86 37 89 34 2 -2 -1 -38 -7 -80 -6
-42 -11 -90 -11 -106 0 -38 4 -37 114 29 147 88 303 256 381 411 30 60 38 57
50 -16 4 -24 8 -43 10 -43 10 0 529 130 532 134 2 2 -18 49 -46 104 -37 75
-47 102 -38 109 7 5 70 36 140 68 73 34 126 64 125 71 -2 7 -84 94 -183 195
l-179 182 44 36 c145 117 239 254 292 421 20 65 23 95 23 225 0 118 -4 163
-19 210 -88 286 -293 486 -583 570 -199 58 -424 38 -633 -56 l-65 -30 -84 50
c-271 161 -610 232 -896 186z m378 -90 c546 -82 1018 -529 1163 -1102 53 -211
65 -402 39 -633 -37 -321 -117 -544 -258 -718 -65 -80 -191 -188 -195 -167 -2
8 11 125 28 261 49 390 60 521 67 816 7 297 5 308 -42 308 -36 0 -43 -18 -49
-125 -3 -55 -5 -101 -6 -102 0 -2 -33 9 -72 23 -195 70 -432 215 -585 358 -50
47 -94 86 -97 86 -3 0 -6 -48 -6 -107 0 -109 18 -249 46 -357 8 -32 13 -60 11
-63 -3 -2 -32 7 -66 21 -250 101 -463 355 -566 676 -9 30 -21 58 -24 63 -4 4
-27 -37 -52 -90 -73 -164 -207 -350 -368 -516 l-76 -78 -8 50 c-7 43 -12 52
-34 57 -50 13 -58 -4 -55 -107 5 -188 59 -755 105 -1111 7 -54 10 -98 6 -98
-11 0 -99 68 -147 114 -63 59 -154 182 -206 278 -197 363 -242 840 -115 1223
152 459 540 845 999 995 182 59 369 74 563 45z m1255 -124 c40 -10 75 -21 78
-24 3 -2 -21 -31 -53 -63 -110 -112 -158 -238 -151 -393 14 -294 229 -502 536
-518 56 -3 102 -7 102 -9 0 -10 -29 -67 -58 -113 -73 -116 -196 -222 -328
-282 -35 -16 -65 -29 -67 -29 -2 0 -7 50 -11 110 -17 290 -94 560 -219 773
-104 174 -212 307 -339 414 -55 47 -75 69 -66 75 29 18 128 51 208 69 105 23
260 19 368 -10z m-2428 -20 c131 -44 133 -46 91 -79 -209 -164 -364 -355 -486
-600 -31 -63 -58 -112 -60 -110 -2 2 5 39 15 82 37 155 52 283 47 400 -6 139
-18 181 -70 230 -40 38 -41 38 -106 34 l-66 -5 62 29 c98 46 169 58 333 54
132 -3 154 -6 240 -35z m2779 -182 c34 -34 75 -81 92 -106 78 -113 129 -274
129 -408 l0 -66 -37 -15 c-60 -25 -194 -16 -263 18 -71 35 -143 107 -178 178
-23 47 -27 68 -27 140 0 74 4 93 29 144 39 80 139 176 183 176 6 0 39 -27 72
-61z m-3389 -47 c38 -38 46 -100 31 -231 -7 -58 -15 -109 -18 -113 -7 -13 -90
1 -162 28 -70 26 -171 81 -171 93 0 4 13 28 30 54 67 106 175 197 233 197 18
0 39 -10 57 -28z m-335 -395 c41 -24 126 -61 190 -82 137 -46 131 -20 48 -229
-42 -105 -52 -140 -43 -146 7 -4 44 -20 82 -36 79 -32 79 -32 120 64 12 28 25
52 28 52 4 0 1 -33 -6 -72 -8 -40 -17 -130 -20 -200 -4 -71 -9 -128 -12 -128
-18 0 -139 69 -195 111 -177 134 -287 358 -287 585 0 85 5 124 16 124 3 0 38
-20 79 -43z m1514 -259 c18 -52 89 -166 158 -255 142 -184 367 -323 563 -349
60 -8 59 -12 25 111 -26 92 -67 307 -60 314 2 2 35 -19 72 -47 162 -119 346
-219 518 -280 l80 -28 -2 -120 c-3 -137 -30 -455 -43 -499 -5 -16 -12 -66 -15
-110 -8 -124 -16 -163 -34 -179 -27 -24 -170 -93 -251 -120 -257 -86 -640
-104 -943 -46 -139 27 -271 72 -388 131 -109 56 -102 43 -114 209 -3 41 -10
95 -15 120 -9 43 -31 263 -49 495 l-9 110 137 140 c131 134 242 271 311 383
17 28 35 52 40 52 4 0 13 -15 19 -32z m-1233 -562 c6 -15 -132 -385 -151 -404
-3 -3 -70 18 -152 49 -22 8 -17 16 84 141 159 199 185 228 200 228 7 0 16 -6
19 -14z m3450 -132 c77 -80 140 -149 142 -153 3 -8 -156 -87 -162 -80 -2 2
-43 82 -91 178 -81 163 -86 176 -69 188 10 7 23 13 30 13 6 0 74 -66 150 -146z
m-3332 15 c9 -97 41 -240 77 -346 27 -78 29 -96 24 -161 l-7 -73 -31 6 c-18 3
-92 14 -166 25 -74 11 -137 22 -139 25 -6 6 220 595 228 595 4 0 10 -32 14
-71z m3180 -205 c75 -152 135 -279 133 -281 -4 -4 -316 -83 -328 -83 -4 0 -12
39 -19 86 -11 80 -11 94 13 212 23 113 47 275 47 325 0 9 4 17 9 17 5 0 70
-124 145 -276z"/>
<path d="M1832 2090 c-53 -49 -75 -154 -53 -248 34 -138 146 -159 202 -37 40
87 17 247 -42 289 -32 22 -81 20 -107 -4z"/>
<path d="M3088 2090 c-77 -60 -80 -258 -7 -337 71 -74 165 1 176 142 7 76 -10
136 -48 180 -36 41 -81 47 -121 15z"/>
</g>
</svg>
