<?xml version="1.0" standalone="no"?>
<!DOCTYPE svg PUBLIC "-//W3C//DTD SVG 20010904//EN"
 "http://www.w3.org/TR/2001/REC-SVG-20010904/DTD/svg10.dtd">
<svg version="1.0" xmlns="http://www.w3.org/2000/svg"
 width="541.000000pt" height="541.000000pt" viewBox="0 0 541.000000 541.000000"
 preserveAspectRatio="xMidYMid meet">

<g transform="translate(0.000000,541.000000) scale(0.100000,-0.100000)"
fill="#000000" stroke="none">
<path d="M1507 5239 c-64 -34 -134 -109 -142 -151 -11 -58 2 -88 63 -148 31
-30 143 -139 249 -243 l192 -187 -362 -1 c-199 -1 -474 -4 -612 -8 l-250 -7
-82 -32 c-276 -110 -453 -328 -519 -636 -23 -108 -21 -2492 2 -2605 67 -328
246 -568 521 -699 l78 -37 219 -5 219 -5 17 -60 c22 -81 41 -115 89 -158 96
-87 268 -88 368 -2 51 44 81 90 103 163 l18 57 1041 3 1041 2 6 -27 c28 -130
86 -207 183 -244 79 -29 189 -24 253 14 71 41 119 114 141 214 l14 58 204 6
c223 6 253 13 380 80 75 40 186 142 245 224 58 82 117 208 151 326 l28 94 3
1215 c2 844 -1 1241 -8 1300 -27 206 -107 367 -255 515 -107 106 -196 166
-323 213 l-67 25 -587 5 c-324 2 -588 5 -588 7 0 1 64 64 142 141 79 76 189
184 245 240 l103 100 0 50 c0 37 -6 59 -23 82 -30 41 -92 90 -136 109 -31 13
-36 13 -73 -12 -40 -27 -209 -188 -553 -526 l-180 -178 -50 -2 c-27 -1 -188
-1 -358 -1 l-307 2 -333 326 c-334 329 -438 424 -460 424 -7 -1 -29 -10 -50
-21z m3176 -1300 c47 -13 102 -60 128 -110 19 -37 19 -71 19 -1354 0 -1283 0
-1317 -19 -1354 -26 -50 -81 -97 -128 -110 -59 -17 -3862 -15 -3917 1 -53 16
-121 84 -135 134 -15 54 -15 2604 0 2658 13 47 82 118 129 133 48 15 3868 18
3923 2z"/>
<path d="M1551 3126 c-289 -56 -526 -106 -528 -112 -3 -9 84 -405 90 -410 7
-6 1102 215 1101 222 -1 5 -19 98 -40 207 l-38 197 -31 -1 c-16 -1 -266 -47
-554 -103z"/>
<path d="M3367 3208 c-23 -99 -79 -389 -76 -391 3 -3 1066 -207 1094 -211 5 0
30 91 56 204 41 182 44 206 30 212 -19 9 -1057 208 -1082 208 -9 0 -19 -10
-22 -22z"/>
<path d="M2685 2031 c-81 -137 -169 -211 -250 -211 -61 0 -134 48 -195 127
l-25 32 -87 -55 c-49 -31 -88 -59 -88 -64 0 -16 83 -101 143 -146 186 -141
351 -145 509 -13 l47 39 48 -36 c194 -149 392 -127 581 62 45 46 82 87 82 93
0 5 -36 32 -81 61 l-81 52 -52 -50 c-158 -156 -315 -116 -453 113 l-48 80 -50
-84z"/>
</g>
</svg>
