<?xml version="1.0" standalone="no"?>
<!DOCTYPE svg PUBLIC "-//W3C//DTD SVG 20010904//EN"
 "http://www.w3.org/TR/2001/REC-SVG-20010904/DTD/svg10.dtd">
<svg version="1.0" xmlns="http://www.w3.org/2000/svg"
 width="698.000000pt" height="698.000000pt" viewBox="0 0 698.000000 698.000000"
 preserveAspectRatio="xMidYMid meet">

<g transform="translate(0.000000,698.000000) scale(0.100000,-0.100000)"
fill="#000000" stroke="none">
<path d="M2285 6001 c-98 -56 -148 -137 -130 -208 3 -15 32 -53 63 -83 31 -30
143 -139 249 -243 l192 -187 -352 -1 c-194 -1 -469 -4 -612 -8 l-260 -7 -82
-32 c-237 -95 -405 -273 -488 -519 -47 -138 -46 -112 -45 -1417 0 -1334 -2
-1282 56 -1454 49 -147 110 -247 218 -361 82 -84 157 -138 265 -190 l76 -36
219 -5 219 -5 17 -60 c22 -81 41 -115 89 -158 96 -87 268 -88 368 -2 51 44 81
90 103 163 l18 57 1041 3 1041 2 6 -27 c40 -185 144 -270 315 -261 59 4 86 10
121 31 71 41 119 114 141 214 l14 58 204 6 c223 6 252 12 380 80 75 40 186
142 245 224 58 82 117 208 151 326 l28 94 3 1229 c3 1352 4 1318 -58 1487 -47
130 -102 213 -209 319 -103 101 -196 162 -319 208 l-67 25 -587 5 c-324 2
-588 5 -588 6 0 2 64 65 142 142 79 76 189 184 245 240 l103 100 0 50 c0 37
-6 59 -23 82 -30 41 -92 90 -136 109 -54 23 -46 30 -631 -542 -180 -176 -186
-181 -225 -179 -22 1 -181 2 -353 3 l-312 1 -333 326 c-333 328 -438 424 -460
424 -7 0 -35 -13 -62 -29z m3188 -1292 c47 -13 102 -60 128 -110 19 -37 19
-71 19 -1354 0 -1283 0 -1317 -19 -1354 -26 -50 -81 -97 -128 -110 -59 -17
-3862 -15 -3917 1 -53 16 -121 84 -135 134 -15 54 -15 2604 0 2658 13 47 82
118 129 133 48 15 3868 18 3923 2z"/>
<path d="M2341 3896 c-289 -56 -526 -106 -528 -112 -3 -9 84 -405 90 -409 8
-6 1102 214 1101 221 -1 5 -19 98 -40 207 l-38 197 -31 -1 c-16 -1 -266 -47
-554 -103z"/>
<path d="M4157 3978 c-23 -100 -79 -389 -76 -391 3 -3 1068 -208 1094 -211 5
0 30 91 56 204 41 182 44 206 30 212 -18 9 -1057 208 -1082 208 -9 0 -19 -10
-22 -22z"/>
<path d="M3475 2801 c-81 -137 -169 -211 -250 -211 -61 0 -134 48 -195 127
l-25 32 -87 -55 c-49 -31 -88 -60 -88 -66 0 -18 125 -135 189 -176 163 -106
315 -101 458 15 l53 43 47 -37 c194 -148 392 -127 581 63 45 46 82 87 82 93 0
5 -36 32 -81 61 l-80 52 -55 -52 c-162 -153 -313 -114 -451 115 l-48 80 -50
-84z"/>
</g>
</svg>
