<svg width="196.52" height="196.52" xmlns="http://www.w3.org/2000/svg" version="1.1">
 <metadata id="metadata5">image/svg+xml</metadata>

 <g>
  <title>Layer 1</title>
  <g id="svg_1">
   <g id="layer1" display="none">
    <circle id="path830" cx="94.30126" cy="102.20547" r="0" fill="#00a3ff" fill-opacity="0.99597" fill-rule="nonzero" stroke="#d79611" stroke-width="11" stroke-miterlimit="4"/>
    <path id="path1669" d="m136.58785,175.39258l-98.44717,-10.34462l-20.58107,-96.80192l85.72738,-49.48226l73.56349,66.2202l-40.26264,90.4086l0.00001,0z" fill="#0000d4" fill-rule="nonzero" stroke="#4b4b40" stroke-width="9.88949" stroke-miterlimit="4"/>
   </g>
   <g id="layer4" display="none">
    <path id="path1690" d="m177.39045,89.3337l-142.85913,72.40115" fill="none" stroke="#5496be" stroke-width="11" stroke-miterlimit="4"/>
    <path d="m19.24572,63.95681l113.02442,113.46182" id="path1684" fill="none" stroke="#a730b8" stroke-width="11" stroke-miterlimit="4"/>
    <path id="path1686" d="m34.53133,161.73485l73.00619,-142.5244" fill="none" stroke="#ce3d1a" stroke-width="11" stroke-miterlimit="4"/>
    <path d="m132.27014,177.41863l-24.73263,-158.20818" id="path1688" fill="none" stroke="#46ae3a" stroke-width="11" stroke-miterlimit="4"/>
    <path id="path1682" d="m19.24572,74.44272l158.14473,25.37689" fill="none" stroke="#d79611" stroke-width="11" stroke-miterlimit="4"/>
   </g>
   <g id="layer2" display="inline">
    <path d="m37.47589,73.45918a20.57781,20.57781 0 0 1 -8.801,8.76016l48.31623,48.50467l11.64852,-5.90331l-51.16375,-51.36151l0,-0.00001zm63.73052,63.97671l-11.64852,5.90331l24.48189,24.57757a20.57781,20.57781 0 0 1 8.80275,-8.76133l-21.63613,-21.71955l0.00001,0z" id="path9722" clip-rule="nonzero" fill="#000000" fill-rule="nonzero" stroke-width="41.5748" stroke-miterlimit="4" stroke-dashoffset="0"/>
    <path d="m157.10786,92.65149l-27.35333,13.86248l2.01678,12.90047l30.94934,-15.68556a20.57781,20.57781 0 0 1 -5.61278,-11.07738l-0.00001,-0.00001zm-43.23258,21.90974l-64.67502,32.77709a20.57781,20.57781 0 0 1 5.61395,11.07855l61.07785,-30.95459l-2.01678,-12.90105z" id="path9729" clip-rule="nonzero" fill="#000000" fill-rule="nonzero" stroke-width="41.5748" stroke-miterlimit="4" stroke-dashoffset="0"/>
    <path d="m93.07631,33.8226l-31.20778,60.925l9.21404,9.24962l33.04253,-64.50526a20.57781,20.57781 0 0 1 -11.04879,-5.66937l0,0.00001zm-39.32446,76.771l-15.80749,30.8595a20.57781,20.57781 0 0 1 11.04763,5.66878l13.97332,-27.27924l-9.21346,-9.24904z" id="path9713" clip-rule="nonzero" fill="#000000" fill-rule="nonzero" stroke-width="41.5748" stroke-miterlimit="4" stroke-dashoffset="0"/>
    <path d="m28.40654,82.35468a20.57781,20.57781 0 0 1 -10.27989,2.1492a20.57781,20.57781 0 0 1 -1.98644,-0.20769l9.23037,59.04066a20.57781,20.57781 0 0 1 10.27989,-2.1492a20.57781,20.57781 0 0 1 1.98527,0.20769l-9.22921,-59.04066l0.00001,0z" id="path1015" clip-rule="nonzero" fill="#000000" fill-rule="nonzero" stroke-width="41.5748" stroke-miterlimit="4" stroke-dashoffset="0"/>
    <path d="m54.8632,158.70914a20.57781,20.57781 0 0 1 0.21527,4.14498a20.57781,20.57781 0 0 1 -2.17079,8.11843l59.03074,9.47248a20.57781,20.57781 0 0 1 -0.21585,-4.14556a20.57781,20.57781 0 0 1 2.17137,-8.11785l-59.03074,-9.47248z" id="path1674" clip-rule="nonzero" fill="#000000" fill-rule="nonzero" stroke-width="41.5748" stroke-miterlimit="4" stroke-dashoffset="0"/>
    <path d="m162.92832,103.94472l-27.24657,53.19219a20.57781,20.57781 0 0 1 11.04996,5.66995l27.24599,-53.19161a20.57781,20.57781 0 0 1 -11.04938,-5.67053z" id="path1676" clip-rule="nonzero" fill="#000000" fill-rule="nonzero" stroke-width="41.5748" stroke-miterlimit="4" stroke-dashoffset="0"/>
    <path d="m125.76765,28.7127a20.57781,20.57781 0 0 1 -8.80275,8.76133l42.19532,42.35808a20.57781,20.57781 0 0 1 8.80216,-8.76133l-42.19473,-42.35808z" id="path1678" clip-rule="nonzero" fill="#000000" fill-rule="nonzero" stroke-width="41.5748" stroke-miterlimit="4" stroke-dashoffset="0"/>
    <path d="m87.25526,22.52995l-53.33979,27.0313a20.57781,20.57781 0 0 1 5.61336,11.07738l53.3392,-27.03247a20.57781,20.57781 0 0 1 -5.61278,-11.07621l0.00001,0z" id="path1680" clip-rule="nonzero" fill="#000000" fill-rule="nonzero" stroke-width="41.5748" stroke-miterlimit="4" stroke-dashoffset="0"/>
    <path d="m116.86747,37.52303a20.57781,20.57781 0 0 1 -10.44907,2.23496a20.57781,20.57781 0 0 1 -1.80092,-0.18902l4.72486,30.25511l12.8923,2.06869l-5.36717,-34.36975l0,0.00001zm-4.77912,49.89021l11.1713,71.53217a20.57781,20.57781 0 0 1 10.12996,-2.07395a20.57781,20.57781 0 0 1 2.15271,0.23627l-10.56108,-67.62639l-12.89288,-2.06811l-0.00001,0.00001z" id="path9758" clip-rule="nonzero" fill="#000000" fill-rule="nonzero" stroke-width="41.5748" stroke-miterlimit="4" stroke-dashoffset="0"/>
    <path d="m39.56676,60.86557a20.57781,20.57781 0 0 1 0.22635,4.21031a20.57781,20.57781 0 0 1 -2.1387,8.05951l30.27844,4.86313l5.95114,-11.62168l-34.31724,-5.51127l0.00001,0zm51.89415,8.3337l-5.95173,11.62285l71.5415,11.48984a20.57781,20.57781 0 0 1 -0.20769,-4.09772a20.57781,20.57781 0 0 1 2.19529,-8.1616l-67.57738,-10.85336l0.00001,-0.00001z" id="path9760" clip-rule="nonzero" fill="#000000" fill-rule="nonzero" stroke-width="41.5748" stroke-miterlimit="4" stroke-dashoffset="0"/>
   </g>
   <g id="layer3" display="inline">
    <circle id="path817" cx="112.94493" cy="19.03971" r="16.57071" transform="matrix(1.12725, 0.0614015, -0.0614015, 1.12725, -18.6111, -9.18715)" fill="#000000" fill-opacity="0.99597" stroke-width="0.26458" stroke-opacity="0.96078"/>
    <circle id="path819" cx="178.10733" cy="77.69744" r="16.57071" transform="matrix(1.12725, 0.0614015, -0.0614015, 1.12725, -18.6111, -9.18715)" fill="#000000" fill-opacity="0.99597" stroke-width="0.26458" stroke-opacity="0.96078"/>
    <circle id="path823" cx="142.44276" cy="157.7812" r="16.57071" transform="matrix(1.12725, 0.0614015, -0.0614015, 1.12725, -18.6111, -9.18715)" fill="#000000" fill-opacity="0.99597" stroke-width="0.26458" stroke-opacity="0.96078"/>
    <circle id="path825" cx="55.23844" cy="148.61796" r="16.57071" transform="matrix(1.12725, 0.0614015, -0.0614015, 1.12725, -18.6111, -9.18715)" fill="#000000" fill-opacity="0.99597" stroke-width="0.26458" stroke-opacity="0.96078"/>
    <circle id="path827" cx="37.00778" cy="62.871" r="16.57071" transform="matrix(1.12725, 0.0614015, -0.0614015, 1.12725, -18.6111, -9.18715)" fill="#000000" fill-opacity="0.99597" stroke-width="0.26458" stroke-opacity="0.96078"/>
   </g>
  </g>
 </g>
</svg>