<svg width="611.9" height="612.9" xmlns="http://www.w3.org/2000/svg" xmlns:undefined="http://www.inkscape.org/namespaces/inkscape" xmlns:undefined="http://sodipodi.sourceforge.net/DTD/sodipodi-0.dtd" xml:space="preserve" version="1.0">

 <g>
  <title>Layer 1</title>
  <g display="none" class="st0"   id="layer1">
   <circle stroke-miterlimit="11.3386" stroke-width="31.1811" stroke="#D79611" fill-opacity="0.996" fill="#00A3FF" display="inline" r="0" cy="306.50416" cx="406.47897" class="st1" id="path830"/>
   <path stroke-miterlimit="8.5599" stroke-width="21.1633" stroke="#4B4B40" fill="#0000D4" display="inline" d="m512.67897,490.20416l-247.2,-26l-51.7,-243.1l215.3,-124.2l184.7,166.3l-101.1,227z" class="st2"              id="path1669"/>
  </g>
  <g display="none" class="st0"   id="layer4">
   <path stroke-miterlimit="11.3386" stroke-width="31.1811" stroke="#5496BE" fill="none" display="inline" d="m615.1,274.1l-358.7,181.8" class="st3"   id="path1690"/>
   <path stroke-miterlimit="11.3386" stroke-width="31.1811" stroke="#A730B8" fill="none" display="inline" d="m218,210.4l283.8,284.9" class="st4"   id="path1684"/>
   <path stroke-miterlimit="11.3386" stroke-width="31.1811" stroke="#CE3D1A" fill="none" display="inline" d="m256.4,455.9l183.3,-357.8" class="st5"   id="path1686"/>
   <path stroke-miterlimit="11.3386" stroke-width="31.1811" stroke="#46AE3A" fill="none" display="inline" d="m501.8,495.3l-62.1,-397.2" class="st6"   id="path1688"/>
   <path stroke-miterlimit="11.3386" stroke-width="31.1811" stroke="#D79611" fill="none" display="inline" d="m218,236.8l397.1,63.7" class="st7"   id="path1682"/>
  </g>
  <g id="svg_1">
   <g   id="layer2">
    <path d="m116.88768,228.93987c-6.06738,11.63946 -15.60183,21.17392 -27.36512,27.2413l150.1986,150.81772l36.15663,-18.32596l-158.99011,-159.73306zm198.11852,198.86146l-36.15663,18.32596l76.15181,76.39945c6.06738,-11.63946 15.60183,-21.17392 27.36512,-27.2413l-67.3603,-67.48412z" id="path9722"/>
    <path d="m488.8552,288.62308l-85.06714,43.09078l6.31503,40.119l96.21131,-48.78669c-9.28681,-9.41063 -15.35419,-21.42156 -17.45919,-34.42309zm-134.47295,68.10324l-201.0903,101.90721c9.28681,9.41063 15.35419,21.42156 17.45919,34.42309l189.94613,-96.21131l-6.31503,-40.119z" id="path9729"/>
    <path d="m289.74608,105.73492l-97.07807,189.45083l28.60336,28.72719l102.77398,-200.595c-12.8777,-2.22883 -24.88864,-8.42004 -34.29927,-17.58302zm-122.21436,238.60899l-49.15816,95.96366c13.00153,2.22883 25.01246,8.29621 34.29927,17.58302l43.46225,-84.81949l-28.60336,-28.72719z" id="path9713"/>
    <path d="m88.65579,256.55264c-9.90593,4.95296 -20.92627,7.30562 -31.94661,6.6865c-2.10501,-0.12382 -4.08619,-0.37147 -6.1912,-0.61912l28.72719,183.50728c9.90593,-4.95296 20.92627,-7.30562 31.94661,-6.6865c2.10501,0.12382 4.08619,0.37147 6.1912,0.61912l-28.72719,-183.50728z" id="path1015"/>
    <path d="m170.9988,493.92339c0.61912,4.21002 0.86677,8.54386 0.61912,12.8777c-0.4953,8.79151 -2.84795,17.33537 -6.81032,25.26011l183.50728,29.47013c-0.61912,-4.21002 -0.86677,-8.54386 -0.61912,-12.8777c0.4953,-8.79151 2.84795,-17.33537 6.81032,-25.26011l-183.50728,-29.47013z" id="path1674"/>
    <path d="m506.93351,323.66529l-84.69567,165.42896c13.00153,2.22883 25.01246,8.29621 34.29927,17.58302l84.69567,-165.42896c-12.8777,-2.10501 -24.88864,-8.29621 -34.29927,-17.58302z" id="path1676"/>
    <path d="m391.40565,89.76161c-6.06738,11.63946 -15.60183,21.17392 -27.36512,27.2413l131.1297,131.74882c6.06738,-11.63946 15.60183,-21.17392 27.36512,-27.2413l-131.1297,-131.74882z" id="path1678"/>
    <path d="m271.66777,70.56888l-165.80044,84.07655c9.28681,9.41063 15.35419,21.42156 17.45919,34.42309l165.80044,-84.07655c-9.28681,-9.41063 -15.35419,-21.42156 -17.45919,-34.42309z" id="path1680"/>
    <path d="m363.79288,117.25056c-10.02975,5.07679 -21.17392,7.55327 -32.44191,6.93415c-1.85736,-0.12382 -3.71472,-0.37147 -5.57208,-0.61912l14.73506,94.1063l40.119,6.43885l-16.84007,-106.86018zm-14.85889,155.02774l34.79457,222.38804c9.7821,-4.82914 20.67862,-7.05797 31.45132,-6.43885c2.22883,0.12382 4.45767,0.37147 6.6865,0.74294l-32.9372,-210.25328l-39.99518,-6.43885z" id="path9758"/>
    <path d="m123.45035,189.81147c0.74294,4.33384 0.86677,8.66769 0.74294,13.12535c-0.4953,8.66769 -2.72413,17.21155 -6.6865,25.01246l94.1063,15.10654l18.44979,-36.15663l-106.61253,-17.08772zm161.34277,25.87923l-18.44979,36.15663l222.38804,35.78516c-0.61912,-4.21002 -0.86677,-8.54386 -0.61912,-12.75388c0.4953,-8.79151 2.84795,-17.45919 6.81032,-25.38394l-210.12946,-33.80397z" id="path9760"/>
   </g>
   <g   id="layer3">
    <circle fill-opacity="0.996" r="58.19731" cy="60.29148" cx="334.69422" class="st8" id="path817"/>
    <circle fill-opacity="0.996" r="58.19733" cy="278.22186" cx="551.88165" class="st8" id="path819"/>
    <circle fill-opacity="0.996" r="58.19727" cy="552.12071" cx="411.58897" class="st8" id="path823"/>
    <circle fill-opacity="0.996" r="58.1973" cy="503.33402" cx="107.72469" class="st8" id="path825"/>
    <circle fill-opacity="0.996" r="58.19729" cy="199.34592" cx="60.17625" class="st8" id="path827"/>
   </g>
  </g>
 </g>
</svg>