<?xml version="1.0" standalone="no"?>
<!DOCTYPE svg PUBLIC "-//W3C//DTD SVG 20010904//EN"
 "http://www.w3.org/TR/2001/REC-SVG-20010904/DTD/svg10.dtd">
<svg version="1.0" xmlns="http://www.w3.org/2000/svg"
 width="957.000000pt" height="945.000000pt" viewBox="0 0 957.000000 945.000000"
 preserveAspectRatio="xMidYMid meet">

<g transform="translate(0.000000,945.000000) scale(0.100000,-0.100000)"
fill="#000000" stroke="none">
<path d="M4425 9319 c-392 -40 -582 -73 -882 -150 -386 -99 -735 -239 -1083
-433 -436 -243 -823 -559 -1189 -971 -119 -134 -180 -213 -256 -330 -63 -97
-119 -195 -112 -195 3 0 45 46 93 103 540 625 1108 1042 1799 1319 363 145
737 236 1200 290 165 19 713 16 891 -5 692 -82 1294 -291 1829 -635 314 -202
553 -409 836 -726 271 -303 548 -749 699 -1126 92 -227 189 -553 221 -735 85
-494 101 -906 48 -1260 -83 -558 -321 -1084 -691 -1529 -88 -105 -290 -308
-398 -398 -399 -334 -857 -556 -1368 -664 -39 -8 -182 -31 -277 -45 -121 -18
-598 -18 -725 0 -511 70 -905 205 -1308 448 -377 228 -707 542 -960 915 -26
38 -50 56 -139 103 -333 176 -656 471 -880 802 -58 86 -79 110 -89 102 -16
-13 -68 -148 -99 -258 -55 -198 -85 -406 -88 -623 -1 -82 -6 -148 -11 -148
-16 0 -177 143 -267 238 -173 183 -281 344 -382 572 -47 105 -93 278 -105 399
-4 41 -12 76 -17 78 -10 3 -42 -48 -102 -157 -27 -48 -97 -230 -121 -315 -54
-184 -89 -419 -98 -645 l-6 -155 45 -117 c144 -370 333 -723 544 -1017 375
-524 842 -954 1391 -1282 107 -64 410 -220 507 -261 22 -9 62 -26 89 -38 199
-84 552 -194 771 -239 33 -7 78 -16 100 -21 22 -5 67 -13 100 -19 768 -132
1577 -73 2285 166 519 175 970 422 1408 771 235 188 578 538 765 782 225 291
475 720 589 1005 11 28 25 64 33 80 80 183 184 519 235 755 125 585 139 1168
40 1740 -124 716 -415 1395 -849 1980 -115 156 -251 311 -429 490 -194 195
-219 218 -402 364 -361 288 -751 514 -1180 686 -322 130 -721 235 -1060 281
-267 36 -733 50 -945 28z"/>
<path d="M2605 7964 c-385 -39 -687 -131 -1001 -305 -232 -129 -407 -263 -639
-489 -82 -81 -157 -151 -167 -156 -13 -7 -188 -276 -188 -289 0 -1 -17 -32
-39 -66 -51 -85 -132 -256 -193 -409 -317 -792 -349 -1757 -92 -2735 10 -38
20 -72 22 -75 9 -13 20 31 26 104 22 254 104 564 204 765 54 107 135 232 176
270 23 22 29 23 50 11 31 -16 36 -35 36 -135 0 -125 34 -277 100 -440 81 -204
210 -393 404 -592 49 -51 95 -93 101 -93 8 0 16 46 24 133 30 316 85 545 184
760 32 69 45 89 65 94 31 7 38 -1 144 -164 151 -233 367 -459 607 -634 104
-75 225 -148 233 -140 4 3 -26 72 -66 151 -73 145 -151 336 -199 485 -87 271
-147 656 -147 942 0 137 30 447 53 563 3 14 11 52 18 85 178 869 731 1635
1507 2090 45 26 82 52 82 56 0 13 -119 65 -235 104 -319 107 -706 146 -1070
109z"/>
<path d="M4167 7189 c-125 -29 -194 -111 -224 -264 -19 -101 -19 -3850 1
-3940 21 -101 58 -154 142 -205 55 -33 63 -35 149 -35 80 0 97 3 155 31 36 17
250 151 475 299 226 147 433 282 460 300 74 48 1041 680 1490 973 419 275 452
298 503 352 89 94 117 158 117 270 0 74 -4 93 -30 145 -66 133 -57 126 -1690
1188 -258 168 -620 404 -804 524 -447 291 -463 301 -558 340 -84 34 -119 38
-186 22z"/>
</g>
</svg>
